<?xml version="1.0" standalone="no"?>
<!DOCTYPE svg PUBLIC "-//W3C//DTD SVG 20010904//EN"
 "http://www.w3.org/TR/2001/REC-SVG-20010904/DTD/svg10.dtd">
<svg version="1.0" xmlns="http://www.w3.org/2000/svg"
 width="640.000000pt" height="640.000000pt" viewBox="0 0 640.000000 640.000000"
 preserveAspectRatio="xMidYMid meet">
<metadata>
Created by potrace 1.14, written by Peter Selinger 2001-2017
</metadata>
<g transform="translate(0.000000,640.000000) scale(0.100000,-0.100000)"
fill="#000000" stroke="none">
<path d="M3073 6389 c-23 -4 -51 -13 -63 -19 -11 -6 -20 -8 -20 -6 0 10 -89
-33 -142 -67 -150 -97 -253 -250 -286 -423 l-16 -81 -233 0 c-183 0 -233 3
-233 13 0 7 -10 24 -22 39 -23 25 -24 25 -186 26 -176 1 -205 -6 -218 -55 l-5
-23 -252 -1 c-228 0 -256 -2 -297 -20 -53 -23 -94 -62 -124 -117 l-21 -40 -2
-1440 c-1 -792 -2 -1445 -3 -1451 0 -7 -51 -11 -154 -11 -142 0 -206 -9 -226
-33 -3 -3 -17 -13 -32 -23 -15 -9 -40 -38 -55 -64 l-28 -48 0 -1070 c0 -1193
-6 -1093 69 -1168 62 -62 93 -71 267 -71 l155 -1 17 -57 c19 -64 52 -108 111
-146 l41 -27 2080 0 c1914 0 2082 1 2110 16 68 38 119 104 130 169 3 19 8 36
10 39 2 4 68 6 147 6 208 -2 277 24 336 124 l27 46 3 1048 c1 687 -1 1062 -8
1086 -15 58 -61 113 -120 145 -52 28 -56 29 -219 30 l-166 1 -1 1407 c-1 774
-5 1432 -9 1462 -9 80 -54 142 -127 180 l-57 28 -240 0 c-220 0 -241 2 -241
17 0 10 -11 28 -24 40 -23 22 -31 23 -191 22 -178 -1 -185 -2 -210 -52 l-14
-27 -242 2 -242 1 -17 86 c-33 162 -115 288 -261 403 -41 32 -169 86 -236 100
-71 15 -194 17 -260 5z m282 -308 c103 -51 182 -151 200 -252 l7 -36 -367 0
-366 -1 6 32 c20 100 104 210 198 258 94 47 224 47 322 -1z"/>
</g>
</svg>
